<svg width="28" height="28" viewBox="0 0 28 28" fill="none" xmlns="http://www.w3.org/2000/svg">
<rect width="28" height="28" rx="4.9887" fill="#3266CA"/>
<path d="M9.40726 20.124V17.0622M9.40726 10.9385V7.87671M7.87634 9.40763H10.9382M7.87634 18.5931H10.9382M14.6124 8.48908L13.5504 11.2502C13.3777 11.6992 13.2914 11.9237 13.1571 12.1125C13.0381 12.2799 12.8919 12.4261 12.7245 12.5451C12.5357 12.6794 12.3112 12.7657 11.8622 12.9384L9.10108 14.0004L11.8622 15.0623C12.3112 15.235 12.5357 15.3214 12.7245 15.4556C12.8919 15.5747 13.0381 15.7209 13.1571 15.8882C13.2914 16.0771 13.3777 16.3016 13.5504 16.7506L14.6124 19.5117L15.6743 16.7506C15.847 16.3016 15.9334 16.0771 16.0676 15.8882C16.1867 15.7209 16.3329 15.5747 16.5002 15.4556C16.6891 15.3214 16.9136 15.235 17.3626 15.0623L20.1237 14.0004L17.3626 12.9384C16.9136 12.7657 16.6891 12.6794 16.5002 12.5451C16.3329 12.4261 16.1867 12.2799 16.0676 12.1125C15.9334 11.9237 15.847 11.6992 15.6743 11.2502L14.6124 8.48908Z" stroke="#F7F7F7" stroke-width="1.22473" stroke-linecap="round" stroke-linejoin="round"/>
</svg>
