<svg width="28" height="28" viewBox="0 0 28 28" fill="none" xmlns="http://www.w3.org/2000/svg">
<rect width="28.0032" height="28.0032" rx="4.9887" fill="#3266CA"/>
<path d="M17.6018 18.9567C16.5554 19.717 15.2951 20.1265 14.0017 20.1265C12.7082 20.1265 11.4479 19.717 10.4015 18.9567M16.6867 8.4964C17.8492 9.06342 18.8025 9.98393 19.4097 11.126C20.017 12.2681 20.2471 13.5731 20.067 14.8539M7.93632 14.8539C7.75631 13.573 7.98641 12.268 8.59366 11.1259C9.20091 9.98387 10.1541 9.06336 11.3167 8.49634M13.6552 10.673L10.6731 13.655C10.5519 13.7763 10.4912 13.8369 10.4685 13.9069C10.4485 13.9684 10.4485 14.0346 10.4685 14.0961C10.4912 14.1661 10.5519 14.2267 10.6731 14.348L13.6552 17.33C13.7765 17.4513 13.8371 17.5119 13.907 17.5347C13.9685 17.5547 14.0348 17.5547 14.0963 17.5347C14.1662 17.5119 14.2269 17.4513 14.3481 17.33L17.3302 14.348C17.4515 14.2267 17.5121 14.1661 17.5348 14.0961C17.5548 14.0346 17.5548 13.9684 17.5348 13.9069C17.5121 13.8369 17.4515 13.7763 17.3302 13.655L14.3481 10.673C14.2269 10.5517 14.1662 10.4911 14.0963 10.4684C14.0348 10.4484 13.9685 10.4484 13.907 10.4684C13.8371 10.4911 13.7765 10.5517 13.6552 10.673Z" stroke="#F7F7F7" stroke-width="1.225" stroke-linecap="round" stroke-linejoin="round"/>
</svg>
