<svg width="28" height="28" viewBox="0 0 28 28" fill="none" xmlns="http://www.w3.org/2000/svg">
<rect width="28" height="28" rx="4.9887" fill="#3266CA"/>
<path d="M10.3257 10.3262L13.0813 13.0818M10.3257 10.3262H8.48859L7.87622 8.48908L8.48859 7.87671L10.3257 8.48908V10.3262ZM18.445 8.33048L16.836 9.93954C16.5935 10.1821 16.4722 10.3033 16.4268 10.4431C16.3868 10.5661 16.3868 10.6986 16.4268 10.8216C16.4722 10.9614 16.5935 11.0827 16.836 11.3252L16.9813 11.4705C17.2238 11.713 17.345 11.8342 17.4849 11.8797C17.6078 11.9196 17.7403 11.9196 17.8633 11.8797C18.0031 11.8342 18.1244 11.713 18.3669 11.4705L19.872 9.96532C20.0342 10.3598 20.1236 10.7918 20.1236 11.2447C20.1236 13.1048 18.6156 14.6127 16.7555 14.6127C16.5313 14.6127 16.3121 14.5908 16.1002 14.549C15.8025 14.4903 15.6536 14.4609 15.5634 14.4699C15.4674 14.4795 15.4202 14.4939 15.3352 14.5394C15.2552 14.5822 15.175 14.6624 15.0146 14.8228L10.6319 19.2055C10.1246 19.7128 9.30207 19.7128 8.79477 19.2055C8.28747 18.6982 8.28747 17.8757 8.79477 17.3684L13.1775 12.9857C13.3379 12.8253 13.4181 12.7451 13.4609 12.6651C13.5064 12.5801 13.5208 12.5328 13.5303 12.4369C13.5393 12.3466 13.51 12.1978 13.4512 11.9001C13.4094 11.6881 13.3875 11.469 13.3875 11.2447C13.3875 9.38462 14.8954 7.87671 16.7555 7.87671C17.3713 7.87671 17.9484 8.04194 18.445 8.33048ZM13.9999 15.8374L17.3679 19.2054C17.8752 19.7127 18.6977 19.7127 19.205 19.2054C19.7123 18.6981 19.7123 17.8756 19.205 17.3683L16.4342 14.5976C16.2381 14.5791 16.0468 14.5437 15.862 14.4929C15.6237 14.4275 15.3624 14.475 15.1877 14.6497L13.9999 15.8374Z" stroke="#F7F7F7" stroke-width="1.22473" stroke-linecap="round" stroke-linejoin="round"/>
</svg>
