<svg width="25" height="25" viewBox="0 0 25 25" fill="none" xmlns="http://www.w3.org/2000/svg">
<g id="medical-cross">
<path id="Icon" d="M15.9014 5.46426C15.9014 4.90421 15.9014 4.62418 15.7924 4.41027C15.6965 4.22211 15.5435 4.06912 15.3554 3.97325C15.1414 3.86426 14.8614 3.86426 14.3014 3.86426H11.5014C10.9413 3.86426 10.6613 3.86426 10.4474 3.97325C10.2592 4.06912 10.1062 4.22211 10.0104 4.41027C9.90137 4.62418 9.90137 4.90421 9.90137 5.46426V8.26426C9.90137 8.82431 9.90137 9.10434 9.79237 9.31825C9.6965 9.50641 9.54352 9.65939 9.35536 9.75526C9.14145 9.86426 8.86142 9.86426 8.30137 9.86426H5.50137C4.94131 9.86426 4.66129 9.86426 4.44738 9.97325C4.25921 10.0691 4.10623 10.2221 4.01036 10.4103C3.90137 10.6242 3.90137 10.9042 3.90137 11.4643V14.2643C3.90137 14.8243 3.90137 15.1043 4.01036 15.3182C4.10623 15.5064 4.25921 15.6594 4.44738 15.7553C4.66129 15.8643 4.94131 15.8643 5.50137 15.8643H8.30137C8.86142 15.8643 9.14145 15.8643 9.35536 15.9733C9.54352 16.0691 9.6965 16.2221 9.79237 16.4103C9.90137 16.6242 9.90137 16.9042 9.90137 17.4643V20.2643C9.90137 20.8243 9.90137 21.1043 10.0104 21.3182C10.1062 21.5064 10.2592 21.6594 10.4474 21.7553C10.6613 21.8643 10.9413 21.8643 11.5014 21.8643H14.3014C14.8614 21.8643 15.1414 21.8643 15.3554 21.7553C15.5435 21.6594 15.6965 21.5064 15.7924 21.3182C15.9014 21.1043 15.9014 20.8243 15.9014 20.2643V17.4643C15.9014 16.9042 15.9014 16.6242 16.0104 16.4103C16.1062 16.2221 16.2592 16.0691 16.4474 15.9733C16.6613 15.8643 16.9413 15.8643 17.5014 15.8643H20.3014C20.8614 15.8643 21.1414 15.8643 21.3554 15.7553C21.5435 15.6594 21.6965 15.5064 21.7924 15.3182C21.9014 15.1043 21.9014 14.8243 21.9014 14.2643V11.4643C21.9014 10.9042 21.9014 10.6242 21.7924 10.4103C21.6965 10.2221 21.5435 10.0691 21.3554 9.97325C21.1414 9.86426 20.8614 9.86426 20.3014 9.86426L17.5014 9.86426C16.9413 9.86426 16.6613 9.86426 16.4474 9.75526C16.2592 9.65939 16.1062 9.50641 16.0104 9.31825C15.9014 9.10434 15.9014 8.82431 15.9014 8.26426V5.46426Z" stroke="#F7F7F7" stroke-width="2" stroke-linecap="round" stroke-linejoin="round"/>
</g>
</svg>
