<svg width="28" height="28" viewBox="0 0 28 28" fill="none" xmlns="http://www.w3.org/2000/svg">
<rect width="28" height="28" rx="4.9887" fill="#3266CA"/>
<path d="M19.2052 11.1086L14 14.0003M14 14.0003L8.79493 11.1086M14 14.0003L14.0001 19.8178M19.5114 16.4857V11.515C19.5114 11.3052 19.5114 11.2003 19.4805 11.1067C19.4531 11.0239 19.4084 10.948 19.3493 10.8839C19.2825 10.8114 19.1908 10.7604 19.0074 10.6585L14.4759 8.14104C14.3022 8.04455 14.2154 7.99631 14.1234 7.9774C14.042 7.96066 13.9581 7.96066 13.8767 7.9774C13.7847 7.99631 13.6979 8.04455 13.5242 8.14104L8.99273 10.6585C8.80931 10.7604 8.7176 10.8114 8.65082 10.8839C8.59174 10.948 8.54703 11.024 8.51968 11.1067C8.48877 11.2003 8.48877 11.3052 8.48877 11.515V16.4857C8.48877 16.6955 8.48877 16.8004 8.51968 16.894C8.54703 16.9768 8.59174 17.0527 8.65082 17.1168C8.7176 17.1893 8.80931 17.2403 8.99273 17.3422L13.5242 19.8597C13.6979 19.9562 13.7847 20.0044 13.8767 20.0233C13.9581 20.04 14.042 20.04 14.1234 20.0233C14.2154 20.0044 14.3022 19.9562 14.4759 19.8597L19.0074 17.3422C19.1908 17.2403 19.2825 17.1893 19.3493 17.1168C19.4084 17.0527 19.4531 16.9768 19.4805 16.894C19.5114 16.8004 19.5114 16.6955 19.5114 16.4857Z" stroke="#F7F7F7" stroke-width="1.22473" stroke-linecap="round" stroke-linejoin="round"/>
</svg>
