<svg width="28" height="29" viewBox="0 0 28 29" fill="none" xmlns="http://www.w3.org/2000/svg">
<rect y="0.388184" width="28" height="28" rx="4.9887" fill="#3266CA"/>
<g clip-path="url(#clip0_342_1461)">
<path d="M14.0001 7.95825H11.8568C10.6731 7.95825 9.7135 8.91783 9.7135 10.1015C9.7135 11.2852 10.6731 12.2448 11.8568 12.2448M14.0001 7.95825V12.2448M14.0001 7.95825H16.1433C17.3271 7.95825 18.2866 8.91783 18.2866 10.1015C18.2866 11.2852 17.3271 12.2448 16.1433 12.2448M14.0001 12.2448H11.8568M14.0001 12.2448V16.5314M14.0001 12.2448H16.1433M11.8568 12.2448C10.6731 12.2448 9.7135 13.2044 9.7135 14.3881C9.7135 15.5718 10.6731 16.5314 11.8568 16.5314M14.0001 16.5314H11.8568M14.0001 16.5314V18.6747C14.0001 19.8584 13.0405 20.8179 11.8568 20.8179C10.6731 20.8179 9.7135 19.8584 9.7135 18.6747C9.7135 17.491 10.6731 16.5314 11.8568 16.5314M16.1433 12.2448C17.3271 12.2448 18.2866 13.2044 18.2866 14.3881C18.2866 15.5718 17.3271 16.5314 16.1433 16.5314C14.9596 16.5314 14.0001 15.5718 14.0001 14.3881C14.0001 13.2044 14.9596 12.2448 16.1433 12.2448Z" stroke="#F7F7F7" stroke-width="1.22473" stroke-linecap="round" stroke-linejoin="round"/>
</g>
<defs>
<clipPath id="clip0_342_1461">
<rect width="14.6968" height="14.6968" fill="white" transform="translate(6.65161 7.03979)"/>
</clipPath>
</defs>
</svg>
