<svg width="28" height="29" viewBox="0 0 28 29" fill="none" xmlns="http://www.w3.org/2000/svg">
<rect y="0.388184" width="28" height="28" rx="4.9887" fill="#3266CA"/>
<path d="M20.1237 12.5512H7.87634M15.2247 17.7563L16.7557 16.2254L15.2247 14.6944M12.7753 14.6944L11.2444 16.2254L12.7753 17.7563M7.87634 11.8163L7.87634 16.9602C7.87634 17.9891 7.87634 18.5035 8.07657 18.8965C8.2527 19.2421 8.53374 19.5232 8.87942 19.6993C9.27239 19.8995 9.78683 19.8995 10.8157 19.8995H17.1843C18.2132 19.8995 18.7276 19.8995 19.1206 19.6993C19.4663 19.5232 19.7473 19.2421 19.9234 18.8965C20.1237 18.5035 20.1237 17.9891 20.1237 16.9602V11.8163C20.1237 10.7874 20.1237 10.273 19.9234 9.88003C19.7473 9.53436 19.4663 9.25331 19.1206 9.07719C18.7276 8.87695 18.2132 8.87695 17.1843 8.87695L10.8157 8.87695C9.78683 8.87695 9.27239 8.87695 8.87942 9.07718C8.53374 9.25331 8.2527 9.53435 8.07657 9.88003C7.87634 10.273 7.87634 10.7874 7.87634 11.8163Z" stroke="#F7F7F7" stroke-width="1.22473" stroke-linecap="round" stroke-linejoin="round"/>
</svg>
